<svg xmlns="http://www.w3.org/2000/svg" viewBox="0 0 141 36"><path fill="#000" fill-rule="evenodd" d="M134.306 13.32c-1.528.489-3.336.106-4.758-.312l-.173-.176c-.07-.87-.07-1.636-.036-2.507h.07c.487.731.487 1.848 1.424 2.124 1.04.35 2.363.56 3.299-.103.522-.418.939-.976.904-1.638-.278-1.95-2.363-2.438-3.683-3.344-1.179-.558-2.29-1.741-2.223-3.101-.033-1.115.766-2.055 1.703-2.649 1.354-.87 3.404-.765 4.827-.173l.173.173-.104 2.544c-.312-.765-.484-1.916-1.492-2.228-.902-.316-2.118-.316-2.884.347-.588.419-.868 1.08-.762 1.812.692 2.403 3.404 2.3 4.967 3.832.796.8 1.143 1.952.936 2.997-.173 1.115-1.147 2.056-2.188 2.403zm3.438 21.917c-1.356-.419-2.327-1.603-3.438-2.58l-3.37-3.344c-.068 0-.17.037-.17.106l.067 4.424c.104.697.904.835 1.426 1.044-1.426.036-2.955.14-4.379.036l-.068-.036c.417-.276 1.112-.276 1.318-.871l.105-6.48-.033-3.624c-.14-.626-.836-.731-1.251-1.011l.14-.102c1.317.035 2.674.035 3.994.138-.419.209-.94.244-1.183.697-.07 1.395-.173 2.753-.137 4.182.068.14-.07.383.103.417 1.597-1.323 2.95-2.787 4.48-4.216.069-.174.174-.347.14-.557-.314-.28-.73-.349-1.078-.523v-.069c1.183 0 2.396-.069 3.541.033v.07c-.693.28-1.32.802-1.838 1.326l-3.854 3.902v.243c1.944 2.091 3.854 4.355 6.181 6.027.555.313 1.18.558 1.805.768-.764.242-1.7.104-2.501 0zm-27.091-11.499c-.24.105-.415.28-.452.488-.136 1.325-.069 2.927-.102 4.356.033.14.175.245.313.28 1.216.208 2.362-.14 3.228-1.046.731-.732.766-1.988.419-2.893-.626-1.289-2.155-1.532-3.406-1.185zm4.654 10.731l-4.793-4.91c-.136-.039-.313.034-.347.172-.068 1.463-.068 2.961.107 4.355.311.525.902.525 1.388.801-1.495.07-3.02.105-4.55 0 .416-.276 1.179-.276 1.355-.906l.07-5.991c0-1.325 0-2.754-.14-4.112-.174-.592-.834-.627-1.285-.906l.105-.104c1.876 0 3.923-.034 5.8.07.938.14 1.806.593 2.36 1.43.487.799.627 2.055.246 2.926-.629 1.184-1.877 1.74-2.99 2.125-.034.346.314.522.487.766 1.737 1.67 3.057 3.83 5.21 4.876-1.042.28-2.188.071-3.023-.592zm.454-32.436l-2.92 4.703-.103.698.036 4.808c.277.626 1.04.557 1.527.87l-.45.105c-1.285-.035-2.746.035-4.1-.105.416-.313 1.076-.244 1.354-.801.14-1.777.035-3.448 0-5.19-1.18-2.3-2.396-5.157-5.034-6.377-.07 0-.139.035-.175-.034.417-.21.903-.071 1.356-.035 1.248.244 2.429.94 3.16 2.09.624 1.01 1.285 1.986 1.874 2.996h.21c.764-1.255 1.703-2.404 2.223-3.728.104-.488-.486-.592-.731-.836l.034-.035 3.162.035c-.487.208-1.042.383-1.423.836zM92.56 23.565c-1.077-.486-2.536-.384-3.506.244-2.085 1.15-2.606 3.52-2.293 5.75.278 1.95 1.632 4.11 3.648 4.667 1.7.452 3.334-.105 4.41-1.429 1.562-2.055 1.389-5.052.105-7.176-.559-.872-1.425-1.674-2.364-2.056zm2.884-10.522l-.242.069H86.376c.384-.347 1.01-.313 1.285-.836.21-3.137.14-6.933.07-10.174-.103-.697-.936-.697-1.355-1.01l1.01-.07 7.571.036c.104.696.173 1.358.104 2.125-.453-.383-.348-1.186-1.043-1.324-1.353-.174-2.813-.069-4.203 0-.173.07-.311.243-.382.418l-.104 3.972c.07.14.175.28.313.314l3.821-.034c.382-.14.626-.56.799-.872h.035c.067.906-.035 1.986-.035 2.961-.313-.348-.244-.94-.764-1.22-1.252-.14-2.639 0-3.927 0l-.172.175c0 1.603-.07 2.997.105 4.493.451.316.937.42 1.492.383 1.25-.033 2.71.245 3.787-.207.347-.385.347-.872.625-1.255h.068l-.033 2.056zm1.075 19.268c-1.353 2.195-3.853 3.168-6.388 2.75-2.258-.383-4.376-2.369-4.864-4.598-.555-2.613.21-5.227 2.362-6.863 1.634-1.151 3.925-1.567 5.87-.837 1.425.592 2.882 1.707 3.472 3.242.868 1.95.73 4.563-.452 6.306zM72.59 24.539l-2.258 3.763-.104.452.034 5.054c.279.698 1.076.627 1.598.974l-.138.07c-1.53-.034-3.092.071-4.55-.07.45-.242 1.145-.242 1.422-.834.14-1.637.07-3.556 0-5.227-1.04-2.022-2.047-4.182-3.958-5.713-.418-.314-.833-.559-1.32-.696 1.18-.245 2.396.102 3.37.767l.763.799c.94 1.116 1.634 2.3 2.327 3.554l.174-.103 2.292-3.764c-.036-.486-.624-.524-.973-.802 1.079-.07 2.188-.035 3.302 0-.835.245-1.668.871-1.981 1.776zm1.77-22.297c-.105 3.97-.068 7.177.07 11.044l-.035.07-1.91-2.3-6.39-8.187c-.07-.07-.14-.138-.209-.104l-.103.104c0 3.031-.175 6.377.069 9.407.52.523 1.32.489 1.943.767-1.457.174-3.055.069-4.582.069.52-.418 1.562-.313 1.527-1.219l.07-6.305c-.07-1.325 0-2.614-.139-3.938-.278-.592-.937-.768-1.458-1.011 1.041-.209 2.291-.105 3.16.558l1.11 1.254 4.064 4.878 1.668 2.055c.104.035.104-.105.173-.138-.034-2.58.173-4.949-.102-7.352-.245-.558-.904-.489-1.322-.767 1.217-.069 2.607-.105 3.855 0-.52.278-1.459.314-1.459 1.115zm-28.236-.245c-.276.142-.416.385-.416.699l-.035 4.216.175.208a3.424 3.424 0 0 0 3.299-1.01c.762-.732.762-1.952.45-2.822-.59-1.324-2.188-1.569-3.473-1.29zm3.994 10.036l-4.063-4.146a.277.277 0 0 0-.382.208v3.695c.035.312.07.626.346.835l1.113.487c-1.459.174-2.953.036-4.481.07.382-.383.939-.314 1.25-.8.278-3.451.173-6.794.036-10.21-.243-.592-.87-.661-1.286-.975 1.945-.104 3.994-.035 5.974.034.971.174 1.945.802 2.432 1.708.38.801.415 1.916 0 2.684-.591 1.113-1.774 1.74-2.885 2.055-.1.034-.068.172-.033.243 1.875 1.777 3.333 4.321 5.731 5.296v.069c-1.39.383-2.85-.138-3.752-1.253zm4.098 12.09l-1.423 4.11-2.258 6.864c-.104 0-.173-.14-.207-.21-.905-2.89-1.911-5.748-2.85-8.606l-.069-.034-.07.105c-1.042 2.892-1.91 5.924-3.021 8.78h-.035L40.29 23.46c-.278-.42-.73-.523-1.146-.732 1.355-.069 2.85-.174 4.1-.034-.42.207-.94.243-1.216.66l.067.419c.8 2.545 1.634 5.054 2.573 7.49.102.036.138-.069.173-.138l1.98-6.062.971-2.614c.939 3.032 1.842 6.133 3.02 9.06.246-.07.21-.28.314-.455.695-2.576 1.633-5.087 2.292-7.7-.173-.453-.659-.453-1.006-.66v-.035h3.299c-.557.278-1.354.696-1.494 1.464zM25.771 3.775l-.173-.035c-.417 1.184-1.008 2.335-1.32 3.59l.07.104c.937.033 1.945.07 2.882-.036l.035-.103-1.494-3.52zm4.447 31.077l-8.719.035c.418-.312 1.077-.347 1.32-.906.174-3.518.07-6.863 0-10.31-.208-.592-.867-.56-1.32-.872l.87-.07 7.71.034c.07.697.07 1.36.07 2.126-.418-.385-.35-1.046-.87-1.324a26.488 26.488 0 0 0-4.41-.034c-.173.14-.348.312-.348.521 0 1.358-.067 2.647-.067 3.903.067.106.136.278.276.313l3.821-.07c.382-.137.625-.522.8-.835h.032c.07.94 0 1.987 0 2.994-.346-.381-.277-1.007-.799-1.252-1.248-.173-2.604-.035-3.888-.035l-.175.209c0 1.568-.104 3.1.14 4.564.382.278.937.383 1.494.383 1.32-.105 2.673.243 3.785-.312.278-.385.347-.837.59-1.188h.035v2.056l-.347.07zm-1.98-21.704v-.036c.346-.244.868-.244 1.041-.663l-.069-.695-1.494-3.345-.242-.14a41.083 41.083 0 0 0-3.577.035c-.244.28-.417.663-.557 1.011l-1.042 2.927c0 .696.799.557 1.217.835l-.106.035c-1.215 0-2.292.105-3.471 0 .485-.28 1.11-.383 1.423-.94L25.946.676 26.05.57l.243.452 4.931 11.36c.382.383.905.556 1.321.73-1.46.14-2.85.036-4.307.036zM7.71 8.513c-.831-1.184-2.187-1.29-3.54-1.29-.348.106-.903-.068-1.078.35l.071 3.868.033.313c.557.695 1.494.731 2.362.592 1.008-.104 2.085-.801 2.433-1.812.207-.661.172-1.464-.28-2.021zM6.74 2.66c-.59-.766-1.46-.906-2.36-.87-.488.069-1.112.14-1.252.696l-.035 3.589c.104.105.104.278.279.278 1.286.14 2.709-.035 3.368-1.219.487-.766.522-1.741 0-2.474zm4.376 21.218c-.277 3.763.036 7.282 0 11.149-2.049-2.23-3.681-4.772-5.592-7.106-.971-1.151-1.91-2.37-2.882-3.519l-.035.035-.069 1.044v6.83l.104 1.637c.382.663 1.25.487 1.84.834-1.389.141-2.952 0-4.445.036.069-.14.313-.207.418-.278.417-.105 1.04-.174 1.075-.732.035-2.648.173-5.784.104-8.467l-.104-1.95c-.312-.628-.971-.802-1.493-1.15v-.07c1.424-.104 2.709.141 3.646 1.115l3.961 4.947a89.719 89.719 0 0 0 2.327 2.892l.138-.103v-5.786l-.105-1.705c-.242-.49-.833-.56-1.318-.697l.068-.071c1.217-.07 2.536 0 3.787 0-.521.245-1.46.316-1.425 1.115zM8.093 12.416c-.832.522-1.806.732-2.88.696l-5.003-.07c.486-.243 1.389-.417 1.285-1.22.104-3.31 0-6.584-.138-9.858-.279-.523-.868-.559-1.321-.802l4.688-.14c1.356 0 2.779.245 3.578 1.464.383.557.486 1.394.278 2.02-.207.872-1.146 1.5-1.841 1.986.313.21.695.28 1.042.489.938.522 1.91 1.497 1.91 2.648.035 1.148-.66 2.16-1.598 2.787z"/></svg>