<svg viewBox="0 0 365 109" xmlns="http://www.w3.org/2000/svg" class="home-awards__svg home-awards__svg--fwa"><path d="M311.1.5H238c-5.3 0-10.5 1.8-14.7 5-2.9 2-5.3 4.7-7 7.8l-.1.1-.1.2L206 32.4s-11.8-23-15.2-25.8A24.1 24.1 0 0 0 164.6 3c-6.3 3-9.8 8.6-12.7 15.1l-7.7 14.2-9.2-18.2c-2.5-5-6.5-9-11.5-11.2A24.3 24.3 0 0 0 113 .5H53.9a24.2 24.2 0 0 0-24.2 24.2V31h-5.6a24.2 24.2 0 0 0 0 48.3h5.6v5.6a24.2 24.2 0 0 0 48.3 0v-5.6h21.4c4.7 0 9-1.3 12.7-3.6l9.5 18.5a24.2 24.2 0 0 0 32.7 12.3c5.9-2.8 11-7.6 13.6-13.7l6.9-15.3 8.5 16.7c.5 1 1 2.1 1.7 3.1a24.2 24.2 0 0 0 43-3.8c3.7 8.8 12.3 15 22.4 15h60.7A23.8 23.8 0 0 0 335.3 85v-5.6h5.6a24.2 24.2 0 0 0 0-48.3h-5.6v-6.3A24.1 24.1 0 0 0 311 .5zm-53.1 76h45.2V63H258v13.4zm53-59.7a7.9 7.9 0 0 1 8 7.9v22.5h21.8a8 8 0 1 1 0 15.9H319v21.3a8 8 0 0 1-8 8h-60.7a8 8 0 0 1-8-8V54.8h.1a8 8 0 0 1 8-7.6h52.7V32.6h-61l-28.8 53.7a7.9 7.9 0 0 1-14.7 2.5 8 8 0 0 1-.7-1.4l-22.8-44.9L152 86.4c-1 2.3-2.5 4.4-4.8 5.5a7.9 7.9 0 0 1-10.3-3.1c-.3-.5-.6-1-.7-1.5l-28-54.7H61.9v14.6h37.6a8 8 0 0 1 0 15.9H61.8v21.8a8 8 0 1 1-15.9 0V63H24.1a8 8 0 0 1 0-15.9H46V24.7a8 8 0 0 1 8-8h59c1.3 0 2.6.4 3.6 1 1.7.7 3.1 2 4 3.7l23.3 45.9 23.5-43.8c1.1-2.4 1.8-4.6 4.3-5.8a7.9 7.9 0 0 1 8.8 1.3 9.6 9.6 0 0 1 3 3.8l22.2 44.5 24.8-46c.6-1.1 1.5-2 2.5-2.7a7.9 7.9 0 0 1 5-1.8h73.2z" fill="#fff" fill-rule="evenodd"></path></svg>