<svg viewBox="0 0 147 104" xmlns="http://www.w3.org/2000/svg" class="home-awards__svg home-awards__svg--hive-awards"><g fill="#FFF" fill-rule="evenodd"><path d="M53.2 19.8A27 27 0 0 1 66.6 11l7.4 9 7.4-9a27 27 0 0 1 13.5 9L74 40.7 53 19.8zM49.4 26L74 50.6 98.7 26A27 27 0 0 1 74 64a27 27 0 0 1-24.6-38zM74 74a37 37 0 1 1 0-74 37 37 0 0 1 0 74zm0-7a30 30 0 1 0 0-60 30 30 0 0 0 0 60z" fill-rule="nonzero"></path><path d="M12.8 103.4h-4v-7H4v7H0V86.2h4v6.4h4.7v-6.4h4.1v17.2zm3.2 0V86.2h4v17.2h-4zm15.7-17.2h4.5l-4.9 17.2h-4.7l-4.9-17.2h4.5l2 8.7.8 4a25 25 0 0 1 .6-4l2.1-8.7zm15 17.2h-8.9V86.2h8.9V90h-4.8v2.7h4.4v3.7H42v3.2h4.8v3.8zm17.2 0l-.7-3.2h-4.9l-.7 3.2H53l5-17.2h5.3l5 17.2h-4.5zm-1.6-7l-.6-2.8a115.7 115.7 0 0 1-1-4.6 54 54 0 0 1-1.5 7.4h3.1zm23.8 7h-4.8l-1.4-7.5a40.2 40.2 0 0 1-.7-4.2 36.3 36.3 0 0 1-.6 4l-1.5 7.7h-4.8l-3.7-17.2h4l1.6 8.6.7 4.6a63.4 63.4 0 0 1 1.1-6.7l1.3-6.5h3.8l1.3 6.5a86.4 86.4 0 0 1 1 6.7l.8-4.5 1.7-8.7h3.8l-3.6 17.2zm14.7 0l-.7-3.2h-4.8l-.8 3.2h-4.4l4.8-17.2h5.4l5 17.2h-4.5zm-1.5-7l-.7-2.8a115.7 115.7 0 0 1-1-4.6 54 54 0 0 1-1.5 7.4h3.2zm11.6.7v6.3h-4V86.2h4.9c4 0 6 1.7 6 5.1 0 2-.8 3.5-2.5 4.6l4.4 7.5H115l-3.2-6.3h-1zm0-3.4h.8c1.4 0 2-.8 2-2.2 0-1.2-.6-1.8-2-1.8h-.8v4zm22.8.7c0 3-.7 5.1-2 6.7a7.3 7.3 0 0 1-5.8 2.3H121V86.2h5.2c2.4 0 4.2.7 5.5 2.2 1.4 1.4 2 3.4 2 6zm-4.2.2a6 6 0 0 0-.8-3.5c-.5-.7-1.4-1.1-2.5-1.1h-1.1v9.6h.9c1.2 0 2-.4 2.7-1.2.5-.9.8-2.1.8-3.8zm16.6 3.6c0 1-.2 2-.7 2.8-.4.8-1.1 1.5-2 2-.9.4-2 .6-3.1.6-1 0-1.8 0-2.5-.2l-2.1-.9v-4l2.4 1c.8.2 1.6.4 2.3.4.6 0 1-.2 1.3-.4.3-.2.4-.6.4-1 0-.2 0-.4-.2-.5a2 2 0 0 0-.5-.6l-2-1c-1-.6-1.7-1-2.2-1.6-.5-.4-.8-1-1-1.6-.3-.6-.4-1.3-.4-2.2 0-1.6.5-2.8 1.5-3.7a6 6 0 0 1 4.1-1.3c1.6 0 3.1.4 4.7 1.2l-1.2 3.6a8 8 0 0 0-3.6-1.1c-.5 0-1 .1-1.1.3a1 1 0 0 0-.4.8c0 .3.1.6.4 1l2.5 1.4a7 7 0 0 1 2.7 2.1c.5.8.7 1.7.7 2.9z"></path></g></svg>