<svg xmlns="http://www.w3.org/2000/svg" viewBox="0 0 194 37"><g fill="#000" fill-rule="evenodd"><path d="M2.198 15.189c0 3.246.484 6.286 2.143 8.773V21.82c0-2.693 2.145-4.629 4.358-5.807-2.213.694-4.632.21-6.5-.824z"/><path fill-rule="nonzero" d="M6.348 10.528c-.755.025-1.39.534-2.022 1.04-.78.631-1.554 1.26-2.537.97.61.455 1.449.608 2.363.532l.201.091h.42c.691-.162 1.462-1.005 2.275-1.005 1.527-.23 3.51-.458 4.577.914l-.536-1.067c-1.447-.076-2.668-.61-3.889-1.294a1.933 1.933 0 0 0-.74-.181h-.112zm-1.512 1.779l-.672.61h-.688c-.15-.38 1.058-1.141 1.36-.61z"/><path d="M.421 7.272c.74.188 1.485.36 2.261.453 1.522-.69 1.932-1.94 1.311-3.602-.865-1.33-2.187-2.086-3.572-2.446v5.595zM7.921 20.232c-2.504 5.12 1.014 12.186-2.562 16.608h5.6c.25-.236.49-.493.716-.784 4.15-5.39-3.943-8.568-3.805-13.751.208-2.073 1.326-3.634 2.766-5.322l-.138-.136C9.207 18.06 8.68 18.922 7.92 20.232M18.793.12c5.507 4.233 9.062 10.877 9.073 18.362-.013 7.483-3.566 14.125-9.077 18.358h18.383V.12h-18.38z"/><path d="M.421 21.733V36.84h3.155l.772-.653c4.3-5.806-.83-9.877-3.927-14.454zM.421.12v.596a9.229 9.229 0 0 1 2.469.722C4.62 2.473 6.003 4.2 5.865 6.273l3.94-.345c.515-1.292.726-3.285.259-4.301C9.76.975 9.49.503 9.135.12H.421zM10.875.12c.803 1.105.828 2.56.938 3.805 1.52-1.176 3.457-1.868 5.463-1.314C15.9 1.571 14.997.745 13.353.121h-2.478z"/><path fill-rule="nonzero" d="M14.303 19.473c-1.176.344-2.283-.415-3.46-.622 0-.162-.038-.322.04-.419-1.674 1.055-1.22 3.076-1.56 4.7.414 1.8 2.352 2.49 3.663 3.525 1.939.345 3.734-.552 5.465-1.174.276.277.69.553.485.968-1.316 1.864-3.32 2.694-5.603 2.487 1.368 2.61.44 5.614-1.018 7.902h1.372c4.098-1.888 8.008-4.715 8.29-10.183.415-3.455.137-7.048-2.35-9.466-.162-.019-.335-.01-.51 0-.425.022-.857.046-1.15-.344-1.107 1.036-2.56 1.449-3.664 2.626m.69 0c.717-.772 2.756-2.29 3.445-1.718.174.147.261.646.22 1.107l-.346.831-.387-1.064c-.968.206-1.88.561-2.36 1.53-.07.274.051.844-.227 1.053-.621-.14-.275-1.186-.344-1.739m3.318 3.87c.76 2.693-2.42 2.207-3.803 2.97-.554-.415-.277-1.105-.346-1.657l.346-.346c.346 1.032.986.642 1.688.252.424-.235.87-.47 1.287-.392.482-.208.275-.968.828-.828"/><path d="M15.55 3.565c-1.813.102-3.548 1.427-4.222 2.5 1.245.692 2.627 1.73 3.804 2.834-.07.413.206.968-.347 1.173-.622-.48-1.172-1.725-1.935-1.31.622 1.31 2.282 1.45 3.595 1.797.484.483.345 1.311 1.383.964.484.14.691.693.83 1.177-.553 1.013-1.752.922-2.856.83-.555-.048-1.085-.092-1.499 0 1.035.413 2.212.551 3.18 1.173s1.244-.828 1.659-1.31c1.659.412.76 2.14 1.452 3.107 3.529 3.662 2.838 10.089 1.04 14.302 4.84-4.42 4.454-14.27 3.32-18.24-1.11-3.872-4.49-9.007-9.058-9.007a5.5 5.5 0 0 0-.345.009"/><path fill-rule="nonzero" d="M18.79.12a23.274 23.274 0 0 1 6.753 8.276c3.643 1.694 7.514 3.937 11.629 6.807V.12H18.79zm-7.917 0c.805 1.105.83 2.56.94 3.802 1.52-1.173 3.454-1.865 5.46-1.31C15.898 1.57 14.996.744 13.353.12h-2.48zM.418.12v.596c.88.134 1.727.374 2.47.72 1.152.692 2.146 1.687 2.644 2.887a29.19 29.19 0 0 1 4.709-.107c.14-.974.11-1.965-.177-2.59C9.76.976 9.487.504 9.134.12H.418zm0 5.246a27.14 27.14 0 0 1 3.699-.855 4.88 4.88 0 0 0-.125-.386C3.127 2.792 1.805 2.035.418 1.677v3.689zm15.128-1.803c-.926.053-1.831.427-2.587.922 2.82.397 5.81 1.174 8.987 2.387-1.587-1.904-3.656-3.317-6.054-3.317-.114 0-.229 0-.346.009z"/><path fill-rule="nonzero" d="M25.324 29.005a23.288 23.288 0 0 1-6.535 7.835h18.383V11.352c-2.737 6.543-6.453 13.44-11.848 17.653zM.418 36.84h3.157l.772-.651c1.235-1.668 1.689-3.191 1.64-4.626-1.765-.62-3.62-1.45-5.57-2.51v7.787zm13.461-3.814c-.244 1.359-.837 2.674-1.565 3.814h1.373c2.518-1.158 4.963-2.675 6.542-4.939a17.806 17.806 0 0 1-6.35 1.125zM5.357 36.84h5.601a7 7 0 0 0 .716-.784c.848-1.1 1.182-2.106 1.185-3.057-1.82-.1-3.758-.448-5.819-1.088-.121 1.816-.534 3.51-1.683 4.93z"/><path d="M10.662 18.593l.001.078.174.035c-.005-.11-.009-.207.045-.274l-.22.161zM17.302 23.989c-.416-.078-.864.157-1.285.393-.5.276-.967.553-1.32.32.366.515.912.187 1.5-.14.425-.235.87-.47 1.287-.392.434-.186.311-.822.688-.841l-.039-.168-.123-.016c-.402 0-.264.656-.708.845M10.882 18.43l.102-.064-.102.064zM14.328 24.128l-.346.345c.069.554-.208 1.244.347 1.657-.304-.415-.106-.995-.166-1.474l.272-.274a1.506 1.506 0 0 1-.106-.254h-.001zM14.814 19.292c.062.508-.223 1.468.213 1.691-.159-.32.019-1.1-.033-1.51.695-.748 2.626-2.197 3.374-1.765v-.001c-.111-.18-.29-.258-.515-.258-.88 0-2.433 1.188-3.04 1.843M17.808 18.657l.283.898.071-.171-.237-.755zM13.746 8.962c.258.277.504.618.762.848-.253-.27-.5-.61-.762-.848zM16.923 11.345c.157.23.38.355.905.178a.88.88 0 0 1 .272.145.857.857 0 0 0-.453-.323c-.356.117-.571.095-.724 0M11.328 6.065c1.181.656 2.486 1.626 3.621 2.667l.001-.015c-1.106-1.04-2.397-2.018-3.585-2.706l-.037.054zM21.14 5.993c1.76 1.82 3.033 4.29 3.631 6.388 1.101 3.852 1.497 13.237-2.9 17.83-.078.2-.156.4-.237.591 4.84-4.42 4.454-14.27 3.32-18.24-.621-2.17-1.957-4.732-3.813-6.569z"/><path d="M10.14 24.586c.796.83 1.963 1.372 2.846 2.07 1.938.346 3.734-.551 5.465-1.173l.162.154c-.104-.117-.235-.225-.342-.335-1.73.621-3.528 1.52-5.465 1.175-.82-.646-1.882-1.16-2.665-1.891zM13.182 9.258c.754.849 2.104 1.002 3.22 1.29l-.137-.171c-.45-.117-.933-.211-1.407-.337l-.073.032-.09-.074c-.566-.161-1.101-.376-1.513-.74zM7.84 16.225C5.887 17.42 4.16 19.222 4.16 21.639v2.037l.18.286V21.82c0-2.693 2.145-4.629 4.358-5.807-.283.091-.57.16-.86.211M10.987 11.997l.411.821.226.251v-.001l-.535-1.065-.102-.009z"/><path d="M10.067 17.267C8.82 18.782 7.88 20.24 7.69 22.123c-.138 5.185 7.955 8.362 3.803 13.753a6.85 6.85 0 0 1-.714.782H5.492l-.133.182h5.6c.248-.236.49-.493.716-.784 4.15-5.39-3.944-8.568-3.805-13.751.208-2.073 1.327-3.634 2.766-5.321l-.138-.137c-.155.145-.297.284-.43.42M9.11.12c.28.35.517.772.774 1.325.469 1.017.253 3.007-.258 4.302l-3.758.329-.003.197 3.94-.345c.512-1.292.726-3.285.259-4.301C9.76.975 9.49.503 9.135.12H9.11z"/><path d="M.421 21.733v.08c3.11 4.472 7.963 8.497 3.747 14.196l-.773.649H.42v.182h3.155l.772-.653c4.3-5.805-.83-9.877-3.927-14.453zM19.615 17.191c2.327 2.415 2.587 5.914 2.182 9.286-.283 5.469-4.192 8.298-8.291 10.18h-1.081l-.11.183h1.372c4.098-1.888 8.008-4.715 8.29-10.183.415-3.455.137-7.048-2.35-9.466h-.012zM36.99.12v36.538H19.019l-.23.182h18.383V.12zM3.812 3.946c.623 1.657.211 2.907-1.31 3.597-.713-.083-1.4-.237-2.08-.404v.133c.74.188 1.484.36 2.26.452 1.522-.69 1.932-1.94 1.31-3.6a5.28 5.28 0 0 0-.815-.97c.23.24.445.498.635.792M6.85 11.958c-1.028 0-1.986 1.335-2.802.96h-.572l-.004-.032c-.538-.006-1.034-.099-1.46-.299l-.223-.05c.61.456 1.45.608 2.363.533l.201.09h.42c.691-.162 1.462-1.005 2.275-1.005 1.387-.208 3.146-.411 4.258.579-.665-.74-1.628-.949-2.613-.949-.63 0-1.268.086-1.843.172M18.791.12a23.386 23.386 0 0 1 2.28 2.002A23.868 23.868 0 0 0 18.838.12h-.047zM17.302 14.521c-.844-.54-1.846-.716-2.779-1.026l-.22.035c1.035.413 2.212.551 3.18 1.173s1.244-.828 1.659-1.31c.258.062.449.162.6.28-.163-.203-.402-.367-.78-.46-.414.48-.691 1.933-1.66 1.308M11.788 3.628l.025.297c1.52-1.176 3.456-1.868 5.463-1.314l-.263-.2a5.333 5.333 0 0 0-1.343-.173c-1.42 0-2.757.561-3.882 1.39"/><path d="M3.277 12.719h.221c.147-.309.736-.667 1.106-.58l.034-.028v-.004c-.074-.128-.202-.182-.351-.182-.462 0-1.122.505-1.01.795M.421.716a9.229 9.229 0 0 1 2.469.722c.486.29.944.637 1.348 1.03a7.426 7.426 0 0 0-1.53-1.212A9.059 9.059 0 0 0 .422.569v.147zM55.996 24.134h-2.531v-9.118l-3.762 6.756h-1.476l-3.742-6.775v9.137h-2.532V10.333h2.552l4.48 7.999 4.48-7.999h2.531zM71.768 23.97c-1.591.4-3.097.601-4.521.601-2.338 0-4.232-.69-5.684-2.07-1.396-1.341-2.095-3.021-2.095-5.038 0-2.099.726-3.814 2.178-5.14 1.451-1.325 3.305-1.99 5.56-1.99 1.34 0 2.64.155 3.898.457l-.353 2.198c-1.327-.208-2.412-.312-3.255-.312-1.728 0-3.056.414-3.984 1.243-.925.83-1.39 2.011-1.39 3.544 0 1.41.444 2.556 1.328 3.44.885.884 2.08 1.326 3.589 1.326.732 0 1.485-.055 2.262-.164v-4.623h2.467v6.528zM88.523 24.134h-2.53v-9.118l-3.763 6.756h-1.476l-3.742-6.775v9.137h-2.531V10.333h2.551l4.48 7.999 4.481-7.999h2.53z"/><path fill-rule="nonzero" d="M106.774 14.643c0-.635-.215-1.153-.645-1.554-.428-.4-.952-.6-1.574-.6h-4.065v4.352h4.065c.634 0 1.164-.204 1.584-.613.423-.407.635-.935.635-1.585zm4.15 9.491h-3.258l-3.796-5.22h-3.38v5.22h-2.656v-13.8h7.195c1.301 0 2.38.427 3.237 1.284.817.829 1.225 1.836 1.225 3.025 0 .871-.242 1.66-.726 2.364a4.1 4.1 0 0 1-1.971 1.53l4.13 5.597z"/><path d="M122.762 24.134h-9.915V10.333h9.915v2.279h-7.259v3.255h6.823v2.279h-6.823v3.71h7.259zM136.766 20.571c0 1.217-.527 2.186-1.579 2.912-1.047.724-2.417 1.087-4.103 1.087-2.119 0-4.025-.379-5.726-1.138l.581-2.053c1.838.635 3.538.954 5.104.954 2.06 0 3.089-.56 3.089-1.679 0-.455-.242-.83-.727-1.12-.372-.234-1.308-.627-2.798-1.182-1.785-.66-2.99-1.263-3.612-1.802-.732-.637-1.097-1.498-1.097-2.59 0-2.417 1.837-3.627 5.516-3.627 1.784 0 3.443.222 4.978.665l-.393 2.134a20.776 20.776 0 0 0-4.543-.519c-1.08 0-1.835.094-2.27.28-.436.186-.654.523-.654 1.004 0 .484.269.893.808 1.223.388.223 1.404.657 3.048 1.307 1.744.675 2.87 1.23 3.382 1.657.665.566.996 1.396.996 2.487"/><path fill-rule="nonzero" d="M149.883 17.463c0-1.395-.387-2.54-1.162-3.44-.775-.899-1.811-1.347-3.111-1.347-1.3 0-2.335.448-3.1 1.347-.768.9-1.153 2.045-1.153 3.44 0 1.396.382 2.53 1.141 3.4.774.911 1.812 1.366 3.112 1.366s2.344-.455 3.132-1.367c.761-.87 1.141-2.003 1.141-3.399m2.634 0c0 1.977-.664 3.656-1.99 5.037-1.33 1.382-2.967 2.072-4.917 2.072-1.95 0-3.589-.69-4.917-2.072-1.328-1.381-1.99-3.06-1.99-5.037 0-1.975.662-3.657 1.99-5.045 1.328-1.39 2.967-2.085 4.917-2.085 1.95 0 3.587.696 4.916 2.085 1.327 1.388 1.99 3.07 1.99 5.045M163.492 14.643c0-.635-.217-1.153-.644-1.554-.427-.4-.954-.6-1.575-.6h-4.066v4.352h4.066c.635 0 1.161-.204 1.585-.613.422-.407.634-.935.634-1.585zm4.148 9.491h-3.256l-3.797-5.22h-3.38v5.22h-2.657v-13.8h7.197c1.302 0 2.379.427 3.237 1.284.816.829 1.223 1.836 1.223 3.025a4.08 4.08 0 0 1-.726 2.364 4.09 4.09 0 0 1-1.97 1.53l4.129 5.597z"/><path d="M180.552 12.633h-4.583v11.501h-2.637V12.633h-4.604v-2.3h11.824zM193.482 20.571c0 1.217-.526 2.186-1.577 2.912-1.05.724-2.419 1.087-4.107 1.087-2.115 0-4.023-.379-5.725-1.138l.582-2.053c1.84.635 3.54.954 5.103.954 2.06 0 3.09-.56 3.09-1.679 0-.455-.242-.83-.724-1.12-.376-.234-1.31-.627-2.802-1.182-1.784-.66-2.987-1.263-3.61-1.802-.732-.637-1.098-1.498-1.098-2.59 0-2.417 1.837-3.627 5.517-3.627 1.785 0 3.443.222 4.978.665l-.395 2.134a20.75 20.75 0 0 0-4.541-.519c-1.078 0-1.837.094-2.272.28-.435.186-.655.523-.655 1.004 0 .484.272.893.812 1.223.386.223 1.402.657 3.05 1.307 1.74.675 2.867 1.23 3.38 1.657.663.566.994 1.396.994 2.487"/></g></svg>