<svg xmlns="http://www.w3.org/2000/svg" viewBox="0 0 43 52"><path fill="#000" fill-rule="evenodd" d="M31.197 12.43c7.22 0 10.06 5.171 10.06 5.171s-5.555 2.858-5.555 9.794c0 7.824 6.92 10.52 6.92 10.52S37.783 51.62 31.25 51.62c-3.001 0-5.334-2.036-8.496-2.036-3.222 0-6.42 2.112-8.502 2.112C8.287 51.695.75 38.696.75 28.248c0-10.28 6.38-15.673 12.364-15.673 3.89 0 6.909 2.258 8.93 2.258 1.737 0 4.96-2.402 9.153-2.402zM31.92 0s.698 4.209-2.655 8.263c-3.58 4.33-7.648 3.621-7.648 3.621S20.852 8.48 23.853 4.5C27.227.022 31.919 0 31.919 0z"/></svg>