<svg xmlns="http://www.w3.org/2000/svg" viewBox="0 0 42 49"><path fill="#000" fill-rule="evenodd" d="M12.507 14.695c2.828 1.652 5.687 3.26 8.525 4.9 2.857-1.63 5.71-3.264 8.572-4.89-2.862-1.618-5.712-3.26-8.572-4.884-2.844 1.62-5.675 3.266-8.525 4.874M.122 12.298c6.97-3.994 13.94-7.981 20.914-11.96 6.97 3.982 13.949 7.951 20.91 11.948a7971.73 7971.73 0 0 0 .002 23.953c-6.957 4.002-13.946 7.944-20.916 11.922C14.044 44.15 7.018 40.202.052 36.156c2.779-1.575 5.555-3.153 8.34-4.718 4.213 2.415 8.437 4.816 12.64 7.247 4.194-2.45 8.443-4.804 12.622-7.278-.038-3.195-.004-6.388-.02-9.583-4.196 2.421-8.399 4.837-12.602 7.25-6.976-3.948-13.93-7.936-20.907-11.89 0-1.63.003-3.26-.003-4.886"/></svg>