<svg xmlns="http://www.w3.org/2000/svg" viewBox="0 0 141 45"><path fill="#000" fill-rule="nonzero" d="M97.116 12.65c2.675 0 4.793 1.193 5.89 2.5h.173v-1.922h4.659v20.09c0 8.249-4.87 11.633-10.626 11.633-5.429 0-8.682-3.634-9.914-6.595l4.274-1.769c.77 1.827 2.637 3.98 5.64 3.98 3.677 0 5.967-2.288 5.967-6.556v-1.557h-.173c-1.097 1.345-3.215 2.537-5.89 2.537-5.583 0-10.453-4.902-10.453-11.17 0-6.306 4.87-11.17 10.453-11.17zM17.826.75c5.274 0 9.047 2.076 11.857 4.806l-3.33 3.327c-2.021-1.904-4.774-3.384-8.528-3.384-6.968 0-12.416 5.614-12.416 12.574s5.448 12.573 12.416 12.573c4.505 0 7.084-1.807 8.74-3.46 1.347-1.365 2.233-3.307 2.58-5.96h-11.32v-4.73h15.94c.172.846.25 1.865.25 2.96 0 3.538-.982 7.941-4.1 11.056-3.042 3.153-6.93 4.845-12.09 4.845C8.277 35.357.25 27.589.25 18.053.25 8.517 8.277.75 17.825.75zm30.337 11.9c6.18 0 11.223 4.692 11.223 11.171 0 6.44-5.044 11.17-11.223 11.17-6.18 0-11.223-4.748-11.223-11.17 0-6.479 5.044-11.17 11.223-11.17zm25.025 0c6.18 0 11.223 4.692 11.223 11.171 0 6.44-5.044 11.17-11.223 11.17-6.18 0-11.223-4.748-11.223-11.17 0-6.479 5.044-11.17 11.223-11.17zm43.331-11.439v33.78h-4.831V1.211h4.831zm14.38 11.44c5.794 0 8.643 4.614 9.567 7.114l.5 1.268-14.956 6.172c1.155 2.25 2.926 3.384 5.428 3.384 2.503 0 4.235-1.23 5.506-3.076l3.811 2.537c-1.232 1.808-4.196 4.941-9.317 4.941-6.352 0-11.088-4.902-11.088-11.17 0-6.652 4.793-11.17 10.55-11.17zm-82.736 4.403c-3.388 0-6.314 2.749-6.314 6.767 0 3.98 2.926 6.768 6.314 6.768s6.314-2.788 6.314-6.768c0-4.018-2.926-6.767-6.314-6.767zm49.376 0c-3.388 0-5.967 2.826-5.967 6.767 0 3.884 2.579 6.768 5.967 6.768 3.35 0 5.987-2.826 5.968-6.73 0-3.921-2.618-6.805-5.968-6.805zm-24.351 0c-3.388 0-6.314 2.749-6.314 6.767 0 3.98 2.926 6.768 6.314 6.768s6.314-2.788 6.314-6.768c0-4.018-2.926-6.767-6.314-6.767zm57.904-.212c-2.541 0-5.872 1.942-5.872 6.633l10.107-4.172c-.559-1.442-2.253-2.46-4.235-2.46z"/></svg>