<svg xmlns="http://www.w3.org/2000/svg" viewBox="0 0 137 31"><g fill="none" fill-rule="evenodd"><path fill="#000" d="M133.216.25l-7.382 15.812-2.791-6h-3.014l4.581 9.814h2.437L136.208.253V.25z"/><path fill="#010202" d="M54.763 8.419h6V3.113h-6v5.306zM7.554 29.612h6.269l6.804-19.55h-6l-3.823 12.563h-.078L6.904 10.062H.75l6.804 19.55zm22.018-15.846c2.101 0 3.555 1.566 3.784 3.857h-7.988c.459-2.33 1.719-3.857 4.204-3.857zm.305 12.103c-2.638 0-4.243-1.717-4.548-4.352h14.105c.038-4.2-1.07-7.559-3.402-9.659-1.644-1.527-3.823-2.369-6.574-2.369-5.888 0-9.978 4.47-9.978 10.31 0 5.88 3.9 10.387 10.359 10.387 2.447 0 4.397-.65 6.002-1.758 1.72-1.183 2.943-2.902 3.287-4.62h-5.734c-.572 1.3-1.758 2.061-3.517 2.061zm10.97 3.743h5.964V20.64c0-4.085 2.446-5.88 6.192-5.384h.114v-5.154c-.305-.115-.65-.153-1.222-.153-2.331 0-3.898 1.069-5.237 3.36h-.115v-3.246h-5.695v19.55zm13.916 0h6v-19.55h-6v19.55zm7.645 0H79.15v-4.698h-9.48v-.113l9.06-10.156v-4.583H62.409v4.697h9.173v.115l-9.173 10.233v4.505zm27.33-3.78c-2.829 0-4.318-2.367-4.318-5.957 0-3.627 1.49-5.956 4.318-5.956 2.83 0 4.397 2.329 4.397 5.956 0 3.59-1.568 5.957-4.397 5.957zm.039-16.304c-6.232 0-10.398 4.467-10.398 10.347 0 5.842 4.166 10.348 10.398 10.348 6.23 0 10.396-4.506 10.396-10.348 0-5.88-4.166-10.347-10.396-10.347zm11.697 20.084h5.962V18.73c0-2.481 1.453-4.237 3.592-4.237 2.065 0 3.136 1.45 3.136 3.513v11.607h5.964V16.86c0-4.314-2.6-7.37-6.804-7.37-2.677 0-4.55 1.146-5.962 3.246h-.117v-2.673h-5.77v19.55z"/></g></svg>