<svg xmlns="http://www.w3.org/2000/svg" class="m-icon__icon" viewBox="0 0 72 72"><g fill="#000" fill-rule="evenodd"><path fill-rule="nonzero" d="M13.143 11l6.428 6.428-2.143 2.143L11 13.143z"/><path d="M21.714 11l2.142 2.143-2.142 2.142-2.143-2.142zm-8.571 8.571l2.142 2.143-2.142 2.142L11 21.714z"/><path fill-rule="nonzero" d="M59.548 13.143L53.12 19.57l-2.143-2.143L57.405 11z"/><path d="M59.548 21.714l-2.143 2.142-2.143-2.142 2.143-2.143zm-8.571-8.571l-2.143 2.142-2.143-2.142L48.834 11z"/><path fill-rule="nonzero" d="M13.143 59.311l6.428-6.428-2.143-2.143L11 57.168z"/><path d="M21.714 59.311l2.142-2.142-2.142-2.143-2.143 2.143zm-8.571-8.571l2.142-2.142-2.142-2.143L11 48.598z"/><path fill-rule="nonzero" d="M59.548 57.168L53.12 50.74l-2.143 2.143 6.428 6.428z"/><path d="M59.548 48.598l-2.143-2.143-2.143 2.143 2.143 2.142zm-8.571 8.571l-2.143-2.143-2.143 2.143 2.143 2.142z"/><path fill-rule="nonzero" d="M35.242 11.694l23.55 23.548-23.55 23.55-23.548-23.55 23.548-23.548zm0 4.242L15.936 35.242 35.242 54.55 54.55 35.242 35.242 15.936z"/><path fill-rule="nonzero" d="M35.242 24.55l10.693 10.692-10.693 10.693L24.55 35.242 35.242 24.55zm-6.45 10.692l6.45 6.45 6.45-6.45-6.45-6.45-6.45 6.45z"/><path stroke="#000" stroke-width="1.5" d="M34.477 14.78h1.53v10.621h-1.53zm0 30.303h1.53v10.621h-1.53zm21.227-10.606v1.53H45.083v-1.53zm-30.304.001v1.53H14.779v-1.53z"/></g></svg>
