<svg xmlns="http://www.w3.org/2000/svg" class="ui-awards__svg ui-awards__svg--omma-awards" viewBox="0 0 131 46"><g fill="#fff" fill-rule="evenodd"><path d="M47 31.8l-7.4-24h-.2c.3 4.8.4 8.1.4 9.7v14.3H34V1.1h8.9L50 24.6h.1L58 1h8.9v30.7h-6V17.3a102.5 102.5 0 0 1 .2-9.5H61l-8 24h-6zm55-4L111.4 1h8l10.8 30.8h-7l-2.2-7.3h-11.2l-2.2 7.3H96V17.3a102.5 102.5 0 0 1 .3-9.5H96l-8 24h-5.9l-7.4-24h-.2c.3 4.8.4 8.1.4 9.7v14.3h-5.8V1.1H78l7.2 23.5h.2L93.2 1h8.8v26.6zm17.4-8.8a2159.5 2159.5 0 0 1-4-13.2c-.4 1.8-1.8 6.2-4 13.2h8z"/><path fill-rule="nonzero" d="M17 27.2a10.2 10.2 0 1 0 0-20.4 10.2 10.2 0 0 0 0 20.4zm0 5.8a16 16 0 1 1 0-32 16 16 0 0 1 0 32z"/><path d="M70.7 45.7l-1.2-3.2h-4.4L64 45.7h-2L66.3 34h2l4.4 11.6h-2zM69 40.9l-1-3.2a19.3 19.3 0 0 1-.7-2l-.6 2.2-1 3H69zm15.8 4.8h-2l-2-6.9a26.5 26.5 0 0 1-.6-2.5 22.4 22.4 0 0 1-.5 2.5l-2 6.9h-2l-1.4-5.8-1.6-5.7h2l1.6 6.7.6 2.8a19.7 19.7 0 0 1 .5-2.8l2-6.7h1.8l1.9 6.7.6 2.8c0-.7.2-1.7.5-2.8l1.7-6.7h1.9l-3 11.5zm11.7 0l-1.1-3.2H91l-1.1 3.2h-2L92.2 34h2l4.3 11.6h-2zM95 40.9l-1-3.2a19.3 19.3 0 0 1-.7-2l-.6 2.2-1 3H95zm7-1.4h1.4c.8 0 1.5-.1 1.9-.5.3-.3.5-.8.5-1.4 0-.7-.2-1.1-.6-1.4-.4-.3-1-.4-2-.4H102v3.7zm0 1.6v4.6h-1.8V34.2h3.2c1.5 0 2.6.2 3.3.8.7.6 1 1.4 1 2.5 0 1.4-.7 2.5-2.2 3l3.3 5.2h-2.1l-2.8-4.6H102zm17.8-1.3c0 2-.5 3.4-1.6 4.4-1 1-2.5 1.5-4.5 1.5h-3.2V34.2h3.5c1.9 0 3.3.5 4.3 1.4 1 1 1.5 2.4 1.5 4.2zm-2 0c0-2.7-1.3-4-3.8-4h-1.7V44h1.4c2.8 0 4.1-1.4 4.1-4.2zm11.1 2.7c0 1-.3 1.9-1 2.5-.8.5-1.8.8-3.1.8s-2.4-.2-3.2-.6v-1.8a8.7 8.7 0 0 0 3.3.8c.7 0 1.3-.1 1.6-.4.4-.3.6-.7.6-1.1 0-.5-.2-.8-.5-1.1-.4-.3-1-.7-2-1-1-.5-1.8-1-2.3-1.5a3 3 0 0 1-.6-2c0-1 .3-1.7 1-2.3.7-.5 1.6-.8 2.8-.8a8 8 0 0 1 3.2.7l-.5 1.6c-1-.5-2-.7-2.8-.7-.6 0-1 .1-1.4.4-.3.3-.4.6-.4 1l.1.8.7.6 1.5.8c.9.3 1.5.7 1.9 1 .4.3.7.6.8 1 .2.4.3.8.3 1.3z"/></g></svg>