<svg xmlns="http://www.w3.org/2000/svg" class="ui-awards__svg ui-awards__svg--the-digiday-awards" viewBox="0 0 540 201"><g fill="none" fill-rule="evenodd"><path fill="#fff" d="M237.2 59.8h-3.7V10.5h-17.1V7h38v3.5h-17.2v49.3zm63.3 0h-3.7v-26h-30.9v26h-3.6V7h3.6v23.5h30.9V7h3.7v52.8zm43.8 0h-28.8V7h28.8v3.4h-25.1v20h23.7v3.4h-23.7v22.6h25.1v3.4zM249 181.2h-21.4l-7.4 18.6H216l21.2-53h2.4l20.8 53h-4.1l-7.4-18.6zm-20.1-3.3h18.9l-7.2-19-2.2-6.3a58 58 0 0 1-2.1 6.3l-7.4 19zm81.2 22h-3L295.2 159c-1-3.4-1.6-6.1-2.1-8.3l-1.7 7.3-11.6 41.7h-3.1L262.2 147h4l9.2 34a868.7 868.7 0 0 0 2.5 10.1l.6 2.9c.6-3.3 1.8-8.3 3.7-15l9-32h4l10.7 36.8c1.2 4.2 2 7.6 2.6 10.2a8648 8648 0 0 1 12.4-47h3.7L310 199.8zm49.3-18.7H338l-7.4 18.6h-4l21.2-53h2.3l20.8 53h-4.1l-7.4-18.6zm-20-3.3H358l-7.2-19-2.1-6.3a58 58 0 0 1-2.2 6.3l-7.4 19zm42.7-1v23h-3.7V147H391c6.5 0 11.4 1.2 14.5 3.6 3.1 2.5 4.7 6.1 4.7 11 0 3.5-1 6.5-2.8 9a15.6 15.6 0 0 1-8.5 5.2l14.3 24h-4.4l-13.6-23H382zm0-3.3h10c4.5 0 8-1 10.4-3 2.5-2 3.7-4.9 3.7-8.7 0-4-1.2-7-3.6-8.8-2.4-1.9-6.3-2.8-11.8-2.8H382v23.3zm80.4-.7c0 8.9-2.3 15.6-7 20.1-4.6 4.6-11.5 6.8-20.5 6.8h-12.6V147h14.3c8.4 0 14.8 2.2 19.2 6.6 4.4 4.4 6.6 10.9 6.6 19.3zm-4 .2c0-7.6-2-13.3-5.8-17.1-3.8-3.8-9.5-5.7-17-5.7H426v46.3h8.7c15.8 0 23.7-7.9 23.7-23.5zm45.3 13.1c0 4.4-1.6 8-4.9 10.5a20.2 20.2 0 0 1-12.9 3.8c-6.4 0-11.4-.7-14.8-2v-3.8c3.8 1.6 8.6 2.5 14.5 2.5 4.4 0 7.8-1 10.3-3 2.6-2 3.9-4.6 3.9-7.9a9 9 0 0 0-1.3-5c-.9-1.2-2.2-2.4-4.1-3.5-2-1.1-4.7-2.3-8.4-3.5a28.7 28.7 0 0 1-11.2-6c-2-2.2-3-5-3-8.7 0-3.9 1.5-7.1 4.6-9.6 3-2.5 7-3.8 11.9-3.8 5 0 9.6 1 14 2.9l-1.4 3.1a32.6 32.6 0 0 0-12.5-2.7c-4 0-7 .9-9.4 2.7a8.9 8.9 0 0 0-3.4 7.4c0 2 .3 3.5 1 4.8a9.8 9.8 0 0 0 3.5 3.4c1.6 1 4.4 2.2 8.3 3.6 4.2 1.4 7.3 2.8 9.3 4 2.1 1.4 3.6 3 4.6 4.6 1 1.7 1.4 3.8 1.4 6.2z"/><path fill="#fff" fill-rule="nonzero" d="M264.7 124.2c-5.2 4-12.3 5.9-21.6 5.9H223V76h20.3c9.3 0 16.4 1.8 21.6 5.9 5 4 8.9 10 8.9 21.1 0 11.1-4 17.2-9.1 21.2zm-11.9-31c-1.6-1.6-4.3-2.8-8.3-2.8h-4.1V115h4.1c4 0 6.7-1.2 8.3-2.8 1.6-1.6 3.2-4 3.2-9.3-.2-5.5-1.6-8.3-3.2-9.8zm43.9 36.7H279v-54h17.6zm59-8.9c-4.3 4-10.6 9.9-24.9 9.9-14.4 0-28.4-8.5-28.4-27.7 0-19.1 14-27.6 28.8-27.6 14.9 0 21.2 7.7 22.6 9.3L342 94.7a14 14 0 0 0-11-4.9c-6.4 0-11.3 4.7-11.3 13.2s5 13.3 11.2 13.3c6.4 0 7.5-1.8 7.5-1.8v-4.2h-8.2v-13h25.4V121zm24.1 8.9h-17.6v-54h17.6zm49.4-5.7c-5.1 4-12.2 5.9-21.5 5.9h-20.4V76h20.4c9.3 0 16.4 1.8 21.5 5.9 5 4 9 10 9 21.1 0 11.1-3.9 17.2-9 21.2zm-11.8-31c-1.6-1.6-4.4-2.8-8.3-2.8h-4.2V115h4.2c4 0 6.5-1.2 8.3-2.8 1.5-1.6 3.1-4 3.1-9.3 0-5.5-1.6-8.3-3.1-9.8zm77 36.7h-19.2l-2.1-7.5h-15.5l-2 7.5h-18.5l18.8-54h19.5l19 54zm-24.9-21.1l-4.1-14.5-4 14.5h8.1zM540 76l-18.8 32.8v21.1h-17.5v-21.1L484.9 76h19.6l7.9 18.1 8-18.1zM6 6v191.4a3 3 0 0 1-6 0V3a3 3 0 0 1 3-3h82.4c22 0 45 6.2 62.9 19.2 23.1 16.9 36.2 43.7 36.2 81 0 37.5-13 63.8-36 80-18 12.4-41.1 18-65.5 18H18.4a3 3 0 0 1-3-3V16.3a3 3 0 0 1 3-3h71a82 82 0 0 1 49.3 16.5c19 14.7 29.7 38 29.7 70.4 0 32.7-11.2 55.6-31.1 69.6A94.4 94.4 0 0 1 83 185.3H34.5a3 3 0 0 1-3-3V29a3 3 0 0 1 3-3h55c12.6 0 28 5 40 14.7 15.7 13 24.4 32.7 23.5 59.5-.8 27.4-9.4 46.4-24.4 58A72.7 72.7 0 0 1 83 171.9H49.2a3 3 0 0 1-3-3V42a3 3 0 0 1 3-3h40.2c11.8 0 23.4 4.7 32.2 13.7 10.2 10.7 16 26.6 16 47.6 0 21.2-6.3 36.6-17.9 46.4a55.6 55.6 0 0 1-36.7 12c-11.9.2-18.3.2-19.4 0-1-.1-1.7-1.1-2-3V55.1a3 3 0 0 1 3-3h22.6c8 0 16.3 3.5 22.7 10.4 7.7 8.3 12 21 12 37.7 0 17.4-4.3 29.4-12.8 36.7-7.2 6.2-16.9 8.8-29.4 8.8a3 3 0 0 1 0-6c11.2 0 19.5-2.2 25.5-7.3 7-6.1 10.7-16.4 10.7-32.2 0-15.4-3.8-26.5-10.4-33.6-5.2-5.6-12-8.5-18.3-8.5H67.7v94.6H83c12.9 0 24.4-3.5 32.8-10.7 10.1-8.6 15.7-22.3 15.7-41.8 0-19.5-5.1-34-14.2-43.4a38.6 38.6 0 0 0-27.9-11.9H52.2v121H83a67 67 0 0 0 42-12.3c13.4-10.4 21.2-27.8 22-53.5.8-25-7-43-21.4-54.6A60.2 60.2 0 0 0 89.4 32h-52v147.2H83c18.5 0 36.7-4.5 50.8-14.4 18.3-12.9 28.6-34 28.6-64.7 0-30.6-10-52.1-27.3-65.6a76.1 76.1 0 0 0-45.7-15.3h-68v173H83c23.3 0 45.2-5.4 62-17.1 21.5-15 33.5-39.4 33.5-75 0-35.5-12.2-60.4-33.7-76.1A102.3 102.3 0 0 0 85.4 6H6z"/></g></svg>