<svg xmlns="http://www.w3.org/2000/svg" class="ui-awards__svg ui-awards__svg--communication-arts" viewBox="0 0 1492 291"><path fill="#fff" fill-rule="evenodd" d="M61.3 3.7C64.5 2.7 74.7.4 80.4.2c5.7-.2 13.3.2 18.1 1a65.7 65.7 0 0 1 46 28.4 52.2 52.2 0 0 1 7.7 17.4l1.6 6c.3 0 .7-2 .7-2.4.3-2.7 1.6-5 2.4-7.7 2.6-9.9 11.3-18.7 18.5-25.7C191.4 1.6 213.7 0 234.8 0c12.9 0 25.6.7 37.3 6.5a71.6 71.6 0 0 1 36.7 45.3c1.8 6 1.4 12.9 1.4 19v167.3c0 5.8-.8 12 1.6 17.5 2.6 5.8 11.6 8.2 16.5 3.7 2.7-2.5 3.6-5.6 4.5-9 1.3-4.2.5-9.4.5-13.8v-27.1c0-3.5-1.3-10.1 0-13.3.5-1 3.5-.5 4.5-.5h11c.7 0 3.1-.4 3.8.2.8.9.2 4.7.2 5.9v17c0 22.3 2.7 54.8-21.1 66.6-16.8 8.4-44.1 8.2-58.5-5.4-5.2-4.9-8.5-11-11.5-17.6-.3-.7-1.4-6.3-2-6.3-.9 0-3.1 4.9-3.8 5.7-4.3 5.7-8.3 11.8-14 16.3-14.8 12.1-35.3 13.7-55 10.1-13.2-2.4-21.9-5.3-34.6-24.6-2.7-4-3.4-8.7-5-13.2-.1-.4-.1-4.5-.6-4.5-.7 0-.7 1.7-.8 2-.7 2.2-1.7 4.5-2.6 6.5a59.7 59.7 0 0 1-15.7 22.5c-17.5 14.2-41 16.6-62.3 11.3a71.3 71.3 0 0 1-25-10C21.9 265 12 243.2 7.2 222.3A333.9 333.9 0 0 1 0 144.2c0-21.6.4-42.7 4.7-63.6 3.8-18.1 8.4-36.9 20.4-51.8a74.8 74.8 0 0 1 36.2-25zM92.5 27a44.9 44.9 0 0 0-30 18.2c-4.6 7.4-6.9 17.6-7.7 26.2-1.4 14-3 28-3.7 42.1-.7 16.7 0 33.5 0 50.2 0 18.8-.8 38.6 2.6 57.1C57 238 64.8 258 84 262.2c4 1 9 .4 13 .2 9.7-.5 17.4-9.2 21.2-17.3 7.8-16.6 9.2-37 9.6-55.1.2-5.6 0-11.1 0-16.7 0-1.5-.6-4.8.4-6.2 1-1.2 4-.6 5.3-.6h15c1.5 0 5-.7 5.8.9 1.2 2.3.3 7 .3 9.6 0 .6-.3 3.1.5 3.4.6.2 1.4-1.8 1.7-2.2 1.4-2.4 3.3-4.6 5-6.9a102 102 0 0 1 25.8-22.6c19.7-13 44-22.5 59.3-41 17.5-21.4 19.4-58.7-6.8-74.4-23.4-14-65.4-4.2-68.4 27 0 .7-.1 5.3 1.2 4.5 1.9-1 2.9-4.2 4.3-5.8 2.5-3 5.7-4.9 9.2-6.3a24 24 0 0 1 28.7 8.6 38 38 0 0 1 5 15.2c2.9 18-16.2 36-33.5 34-9.4-1-16.6-7-23-13.4-4.5-4.6-8.1-11.8-9-18.1a23 23 0 0 0-1.8-5.4c-1 .3-2 5.5-2.3 6.6-2.3 6.5-4.3 13-8.3 18.6a28.8 28.8 0 0 1-51.9-9.7c-3.8-15.5 2.5-34.6 20.5-36.8 7-.8 15.2 2 19.7 7.6 1.6 2 3 6.9 5 8.2 1.1.8 1.5-1.9 1.6-2.5.3-3.3-1-7.3-1.8-10.5a37.6 37.6 0 0 0-42.7-28.2zm165.7 102.9c-1.8-.2-5 4.4-6.2 5.5l-17.4 17c-16.4 16.4-33.9 30.8-40.8 53.9-1.2 3.8-1.3 7.4-1.7 11.3-.6 5.4-1.1 10.4 0 15.8 2 11.5 6.3 26.6 20.8 28 3.3.2 7.7.5 11-.3 25.5-5.7 31.7-34.7 34-56.9.6-5.3 1.2-10.4 1.2-15.8v-17.8c0-10.4-.4-20.8-.4-31.2V132c0-.4.2-2.2-.5-2.2zM479 205.2c-4.8 0-9-1-12.8-3.1-3.7-2-6.9-5.4-9.4-10a59.3 59.3 0 0 1-5.8-17.7c-1.3-7.2-2-16-2-26.4 0-20.5 2.6-36.2 7.8-46.9C462 90.4 470.1 85 481 85c2.3 0 4.5.1 6.6.4 2.1.3 4.5.9 7 1.8V108c-1.2-.7-2.5-1.1-4-1.3l-3.8-.3c-6.5 0-10.8 3.3-12.9 9.8-2 6.5-3.1 16.3-3.1 29.2 0 7 .2 13.1.7 18.1.5 5 1.3 9 2.5 12.2 1.2 3.1 2.9 5.4 5 6.9s4.9 2.2 8.2 2.2c1 0 2.3 0 3.6-.2 1.3-.1 2.6-.5 3.8-1.2v19.4c-2 1-4.4 1.6-7.3 1.9-2.9.3-5.6.5-8.3.5zm50.6 0c-5.7 0-10.4-1.2-14.1-3.7a25.5 25.5 0 0 1-8.8-10.9 60.6 60.6 0 0 1-4.6-17.8 235.8 235.8 0 0 1 0-50.3c.9-7.8 2.5-14.5 4.8-20s5.5-9.8 9.4-12.9c4-3 9-4.6 15.1-4.6 5.7 0 10.5 1.4 14.2 4.1a28 28 0 0 1 8.9 11.4 59.7 59.7 0 0 1 4.5 17.7c.8 7 1.2 14.6 1.2 23 0 21.9-2.3 38-6.8 48.4a24 24 0 0 1-23.8 15.6zm1.2-19.4c1.3 0 2.5-.5 3.5-1.6 1-1 1.8-3 2.4-6 .6-3 1-7 1.3-12.4a428.5 428.5 0 0 0 0-41.2c-.3-5.3-.7-9.5-1.3-12.5-.6-3-1.4-5-2.4-6.1a4.7 4.7 0 0 0-7.2.2c-1 1.2-1.8 3.3-2.4 6.3-.6 3-1 7.1-1.4 12.4a423.3 423.3 0 0 0-.1 40.3c.3 5.3.7 9.5 1.4 12.6.7 3 1.5 5.2 2.5 6.3 1 1.1 2.2 1.7 3.7 1.7zM572.2 87h25.6l6.2 48.2 3.6 34.2h1l3.8-34.2 6.8-48.2H645l4.2 116.6h-20L628 161l-.6-29h-.8l-3.6 29-6 42.6h-18.8l-5.8-42.2-3.4-30.2h-1l-.8 29.8-1 42.6h-18l4-116.6zm89.6 0h25.6l6.2 48.2 3.6 34.2h1l3.8-34.2 6.8-48.2h25.8l4.2 116.6h-20l-1.2-42.6-.6-29h-.8l-3.6 29-6 42.6h-18.8l-5.8-42.2-3.4-30.2h-1l-.8 29.8-1 42.6h-18l4-116.6zm115.6 118.2c-4.5 0-8.6-.5-12.1-1.5s-6.5-3-9-5.8a28.8 28.8 0 0 1-5.6-12.1c-1.3-5.2-1.9-12-1.9-20.2V87H770v77.6c0 4.4.1 8 .4 10.8.3 2.8.7 5 1.3 6.5.6 1.5 1.4 2.6 2.4 3.1s2.2.8 3.5.8c1 0 2-.3 2.9-.8.9-.5 1.6-1.6 2.1-3.2s1-3.9 1.2-6.8c.3-3 .4-6.7.4-11.4V87H805v73.4c0 9.3-.6 16.9-1.8 22.7a36 36 0 0 1-5.3 13.6 17.7 17.7 0 0 1-8.7 6.7 36 36 0 0 1-11.8 1.8zM816.8 87h15.8l21.2 58.6h.4l-.4-58.6h19.4v116.6h-16l-20.8-60.4h-.4l.2 60.4h-19.4V87zm68.8 0h21.2v116.6h-21.2V87zm60.8 118.2c-4.8 0-9-1-12.8-3.1-3.7-2-6.9-5.4-9.4-10a59.3 59.3 0 0 1-5.8-17.7c-1.3-7.2-2-16-2-26.4 0-20.5 2.6-36.2 7.8-46.9 5.2-10.7 13.3-16.1 24.2-16.1 2.3 0 4.5.1 6.6.4 2.1.3 4.5.9 7 1.8V108c-1.2-.7-2.5-1.1-4-1.3l-3.8-.3c-6.5 0-10.8 3.3-12.9 9.8-2 6.5-3.1 16.3-3.1 29.2 0 7 .2 13.1.7 18.1.5 5 1.3 9 2.5 12.2 1.2 3.1 2.9 5.4 5 6.9s4.9 2.2 8.2 2.2c1 0 2.3 0 3.6-.2 1.3-.1 2.6-.5 3.8-1.2v19.4c-2 1-4.4 1.6-7.3 1.9-2.9.3-5.6.5-8.3.5zm36-118.2h28.2l14.6 116.6h-21.8l-2-24.4h-12.2l-2.4 24.4H965L982.4 87zm8.6 72.6h9l-1.6-20-1.8-26.8h-1.2l-2.4 26.8-2 20zm38-72.6h48.4v20.8h-12.8v95.8h-21.4v-95.8H1029V87zm56.6 0h21.2v116.6h-21.2V87zm59.6 118.2c-5.7 0-10.4-1.2-14.1-3.7a25.5 25.5 0 0 1-8.8-10.9 60.6 60.6 0 0 1-4.6-17.8 235.8 235.8 0 0 1 0-50.3c.9-7.8 2.5-14.5 4.8-20s5.5-9.8 9.4-12.9c4-3 9-4.6 15.1-4.6 5.7 0 10.5 1.4 14.2 4.1a28 28 0 0 1 8.9 11.4 59.7 59.7 0 0 1 4.5 17.7c.8 7 1.2 14.6 1.2 23 0 21.9-2.3 38-6.8 48.4a24 24 0 0 1-23.8 15.6zm1.2-19.4c1.3 0 2.5-.5 3.5-1.6 1-1 1.8-3 2.4-6 .6-3 1-7 1.3-12.4a428.5 428.5 0 0 0 0-41.2c-.3-5.3-.7-9.5-1.3-12.5-.6-3-1.4-5-2.4-6.1a4.7 4.7 0 0 0-7.2.2c-1 1.2-1.8 3.3-2.4 6.3-.6 3-1 7.1-1.4 12.4a423.3 423.3 0 0 0-.1 40.3c.3 5.3.7 9.5 1.4 12.6.7 3 1.5 5.2 2.5 6.3 1 1.1 2.2 1.7 3.7 1.7zm39.2-98.8h15.8l21.2 58.6h.4l-.4-58.6h19.4v116.6h-16l-20.8-60.4h-.4l.2 60.4h-19.4V87zm97.2 0h28.2l14.6 116.6h-21.8l-2-24.4h-12.2l-2.4 24.4h-21.8L1282.8 87zm8.6 72.6h9l-1.6-20-1.8-26.8h-1.2l-2.4 26.8-2 20zm42.2-72.6h25.4c9.7 0 16.6 3 20.7 9.2 4 6.1 6.1 16 6.1 29.6 0 6.7-.8 12.4-2.4 17.3a39 39 0 0 1-6.4 12.3l11 48.2h-21.2l-7.6-38h-4.4v38h-21.2V87zm21.2 19.6V146h.6a12 12 0 0 0 3.6-.5c1-.3 2-1.2 2.8-2.6a18 18 0 0 0 1.8-6.1c.4-2.7.6-6.3.6-11 0-7.3-.5-12.4-1.5-15.1-1-2.7-3.2-4.1-6.7-4.1h-1.2zm37.4-19.6h48.4v20.8h-12.8v95.8h-21.4v-95.8h-14.2V87zm55 96c2.3 1 4.4 1.7 6.4 1.9l6 .3c4 0 6.8-1.5 8.5-4.5 1.7-3 2.5-6.7 2.5-11.1a21.7 21.7 0 0 0-4.1-13.4 28.8 28.8 0 0 0-4.3-4.7l-5-4.5a40.6 40.6 0 0 1-8.5-11.6 49.4 49.4 0 0 1-1.4-30.1c1.1-4 2.9-7.6 5.2-10.6 2.3-3 5.2-5.4 8.6-7.1 3.4-1.7 7.4-2.6 11.9-2.6 2.7 0 5.3.2 7.9.6 2.6.4 5 1.1 7.3 2.2V108c-3-1.9-6.5-2.8-10.8-2.8-2 0-3.7.4-5 1.2a9.5 9.5 0 0 0-3.2 3.1c-.8 1.3-1.4 2.7-1.7 4.3a23.5 23.5 0 0 0 1.8 14.7c1.5 2.3 3.8 4.8 6.7 7.3 2.4 2 4.5 4 6.4 6.1a32.5 32.5 0 0 1 8.1 15.8c.7 3.4 1.1 7.5 1.1 12.3 0 11.2-2.3 19.9-7 26-4.7 6.1-11.6 9.2-20.8 9.2a71 71 0 0 1-8.4-.5c-2.8-.3-5.5-1-8.2-1.9V183z"/></svg>