<svg xmlns="http://www.w3.org/2000/svg" class="ui-awards__svg ui-awards__svg--creative-review" viewBox="0 0 200 200"><path fill="#fff" fill-rule="evenodd" d="M166.6 83.8v48h16.6v-5.6h-9.6v-17.4h8.2V103h-8.2V89.5h9.6v-5.7h-16.6zm-19.3 48h9.1l6.7-48h-6.7l-4.6 37.9-4.5-37.7.4-.2h-7.5l7 48zm-17.8-48v48h7v-48h-7zm12.9 57.2v-5.6h-16.8v48h16.8v-5.7h-9.6v-17.3h8v-5.5h-8V141h9.6zm-22.7-9.2V89.5h5.5v-5.7H107v5.7h5.7v42.3h7zm-19.1 0h7L100.8 84v-.2h-9.4l-7 48h6.8l1.4-11.9H99l1.6 12zm-35.8 3.6v48h16.6v-5.7H72v-17.3h8v-5.5h-8V141h9.5v-5.6H64.8zm0-51.6v48h16.6v-5.6H72v-17.4h8V103h-8V89.5h9.5v-5.7H64.8zm-11.5 99.4v.2h6.9v-.6c-.3-.5-.5-1.4-.5-2.7l-.1-4.9v-7c0-2.1-.4-3.8-1.1-5.2a5.7 5.7 0 0 0-3.4-2.8 6.7 6.7 0 0 0 3.4-3c.7-1.3 1-3 1-5.2v-7c0-3.4-.7-5.8-2.3-7.4-1.5-1.6-4-2.3-7.4-2.3h-9.4v48h7.3v-20.5h2c1 0 1.7.3 2.2 1 .4.6.6 1.7.6 3v8.3l.2 5.4c.2 1.3.4 2.2.6 2.6zm0-51.6v.2h6.9v-.6c-.3-.5-.5-1.4-.5-2.8l-.1-5v-7c0-2-.4-3.8-1.1-5a6.7 6.7 0 0 0-3.4-3 5.7 5.7 0 0 0 3.4-2.8c.7-1.4 1-3.1 1-5.2v-6.8c0-3.4-.7-5.9-2.3-7.5-1.5-1.5-4-2.3-7.4-2.3h-9.4v48h7.3v-20.7h2c1 0 1.7.4 2.2 1 .4.7.6 1.8.6 3.3v8l.2 5.6c.2 1.4.4 2.2.6 2.6zm-27.1.4c3.2 0 5.6-.8 7.2-2.4 1.6-1.6 2.3-4.2 2.3-7.7v-11h-7v11.6c0 1.3-.2 2.2-.6 2.8-.4.6-1 .9-2 .9a2 2 0 0 1-1.7-1c-.4-.5-.6-1.4-.6-2.7V93c0-1.2.2-2 .6-2.7a2 2 0 0 1 1.8-.8c.9 0 1.5.2 2 .8.3.6.5 1.5.5 2.7v10h7v-9.5c0-3.6-.7-6.1-2.3-7.8-1.6-1.6-4-2.4-7.2-2.4-3.3 0-5.7.8-7.3 2.4-1.5 1.7-2.3 4.2-2.3 7.8v28.3c0 3.5.8 6 2.3 7.7 1.6 1.6 4 2.4 7.3 2.4zm65.2 3.5v-.1h-7l6.6 48h9.6l6.8-48h-6.8l-4.5 38-4.7-37.9zm28.3 47.9v-48h-7v48h7zm34.4-47.9v-.1h-7.2l5.8 48h9l3.3-27.7 3.4 27.5v.2h9.1l5.9-48h-6.6l-4 36.7-4.2-36.6v-.1H162l-4.3 36.7-3.7-36.6zM0 0h200v200H0V0zm95.9 94.7l2.3 19.2h-4.8l2.5-19.2zm-43.4 49.8v9.2c0 1.2-.2 2-.6 2.7-.5.7-1.2 1-2.1 1h-2.1V141h2.1c1 0 1.6.3 2 .9.5.6.7 1.5.7 2.6zm0-51.5v9.1c0 1.2-.2 2.1-.6 2.7-.5.6-1.2.9-2.1.9h-2.1V89.3h2.1c1 0 1.6.3 2 .8.5.6.7 1.6.7 2.9z"/></svg>