<svg xmlns="http://www.w3.org/2000/svg" class="ui-awards__svg ui-awards__svg--webby-awards" viewBox="0 0 111 64"><g fill="#fff" fill-rule="evenodd"><path d="M3 35.3v4.6c35.7-2.1 9.2-3.2 0-4.6m0 7.6v4.5l.3.1c27.2-2.5 19.4-3.4-.3-4.6"/><path d="M3 2.7v15c22.4-.8 22.5-2 10.9-3.6l2-2.6c14.4 2.2 13.5 5.8 3.2 7.6 3.5 1.3 15.7 3.5 1 8 2.3.6 15.9 4-1 7 2.7 1.2 16.9 3 .6 7.3 4.2.7 15 3 .8 7.6 5.4.6 6 .7 7.4 3.3V62h6.6V2.7H3"/><path d="M3 28.3v4.6c6.7-1.3 37.4-1.9 0-4.6m0-7.9v4.9c21-1.2 28.1-2.6 0-5m39.2-1.8h-3.6v-.7h8v.7H43v9.6h-.8v-9.6m6.3-.7h.8v4.8h6.5v-4.8h.8v10.3h-.8v-4.8h-6.5V28h-.8V17.8m10.8 0h7.3v.7H60v4h6v.8h-6v4.1h6.6v.7h-7.3V17.8M39.2 34h3.4l2 6.7 2.2-6.7h2.8l2.3 6.7 2-6.7h3.3l-3.9 11.7h-2.8L48.2 39l-2.3 6.7H43L39.2 34m26.2 4.7c-.2-1.3-1-2.2-2.1-2.2s-1.9.9-2.1 2.2h4.2zm-8.2 1c0-3.5 2.5-6.3 6-6.3 4.2 0 6.1 3 6.1 6.6v.8h-8c.3 1.4 1.3 2 2.6 2 1 0 1.8-.4 2.6-1.2l2.3 2a6.3 6.3 0 0 1-5.1 2.4c-3.8 0-6.5-2.6-6.5-6.3zm20 1.3h-2.5v2h2.5c1 0 1.6-.3 1.6-1s-.5-1-1.6-1zm1.1-3.4c0-.6-.5-1-1.4-1h-2.2v2h2c1 0 1.6-.3 1.6-1zM71.6 34h6c1.4 0 2.5.4 3.2 1 .4.5.7 1.1.7 2 0 1.3-.8 2.1-1.8 2.6 1.4.4 2.3 1.2 2.3 2.8 0 2-1.6 3.3-4.4 3.3h-6V34zm18.5 7h-2.5v2h2.5c1 0 1.6-.3 1.6-1s-.5-1-1.6-1zm1.1-3.4c0-.6-.5-1-1.4-1h-2.2v2h2c1 0 1.6-.3 1.6-1zM84.5 34h6c1.4 0 2.5.4 3.2 1 .4.5.7 1.1.7 2 0 1.3-.8 2.1-1.8 2.6 1.4.4 2.3 1.2 2.3 2.8 0 2-1.6 3.3-4.4 3.3h-6V34zm14.9 7.3L94.9 34h3.7l2.4 4.3 2.4-4.3h3.6l-4.4 7.2v4.5h-3.2v-4.4M47.5 57.4l-2.7-6-2.7 6h5.4zm-3-6.8h.7L49.9 61h-.8l-1.3-3h-6l-1.5 3h-.8l4.8-10.4zm5.4.1h.8L54 60l3-9.2h.6l3 9.2 3.2-9.2h.8l-3.7 10.4h-.7l-3-9-3 9h-.6L50 50.7m22.6 6.7l-2.7-6-2.7 6h5.4zm-3-6.8h.7L75.1 61h-.8l-1.4-3h-6l-1.3 3h-.8l4.8-10.4zM81 56c1.8 0 3-.8 3-2.3 0-1.4-1-2.3-2.9-2.3h-3.5V56h3.5zm-4-5.3h4.3a4 4 0 0 1 2.9 1c.4.5.7 1.2.7 2 0 1.7-1.2 2.7-3 2.9l3.4 4.4h-1L81 56.7h-3.4V61H77V50.7zm10.9.7v8.9h2.6c2.9 0 4.7-2 4.7-4.4 0-2.5-1.8-4.5-4.7-4.5H88zm-.8-.7h3.4c3.3 0 5.5 2.2 5.5 5.1 0 3-2.2 5.2-5.5 5.2h-3.4V50.7zm10.3 8.8l.5-.6a5 5 0 0 0 3.7 1.5c1.5 0 2.6-.8 2.6-2 0-1.1-.6-1.7-3-2.2-2.4-.5-3.4-1.4-3.4-3 0-1.5 1.4-2.6 3.3-2.6 1.5 0 2.5.4 3.5 1.2l-.4.6c-1-.8-2-1.1-3.1-1.1-1.5 0-2.5.8-2.5 1.9 0 1.1.5 1.8 3 2.3 2.4.4 3.4 1.3 3.4 2.8 0 1.7-1.5 2.8-3.5 2.8-1.6 0-2.9-.5-4.1-1.6"/></g></svg>