<svg id="SvgjsSvg1016" width="288" height="288" xmlns="http://www.w3.org/2000/svg" version="1.1" xmlns:xlink="http://www.w3.org/1999/xlink" xmlns:svgjs="http://svgjs.com/svgjs"><defs id="SvgjsDefs1017"></defs><g id="SvgjsG1018"><svg xmlns="http://www.w3.org/2000/svg" width="288" height="288" fill="#46565d"><path d="M7.534 30.28a4.834 4.834 0 1 0 0-9.667 4.828 4.828 0 0 0-4.821 4.833 4.833 4.833 0 0 0 4.821 4.834zm0-8.515a3.682 3.682 0 1 1 0 7.363 3.677 3.677 0 0 1-3.672-3.682 3.683 3.683 0 0 1 3.672-3.68zm0 4.257h1.598a.576.576 0 0 0 0-1.152H8.11v-1.4a.575.575 0 1 0-1.15 0v1.976c0 .319.258.576.575.576zm5.248 23.77a.575.575 0 0 0 .574-.576V32.74h.885a.575.575 0 0 0 .575-.576v-13.44a.575.575 0 0 0-.575-.577h-1.023l-2.097-4.482V7.777a.577.577 0 0 0-.046-.247L8.046.864A.575.575 0 0 0 7 .864L4.023 7.49a.577.577 0 0 0-.046.248v5.928l-2.132 4.482H.828a.575.575 0 0 0-.575.576v13.44c0 .319.257.577.575.577h.896v16.476a.575.575 0 1 0 1.15 0V32.74h9.333v16.476c0 .318.257.576.575.576zM5.098 8.353H9.97v4.897H5.098V8.353zm2.436-5.858L9.667 7.2H5.402l2.132-4.706zm-2.66 11.908h5.316l1.758 3.756H3.115l1.759-3.756zM1.425 19.31h12.242v12.277H1.402l.023-12.277zM6.489 9.218a.575.575 0 0 0-.575.576v2.005a.575.575 0 1 0 1.15 0V9.794a.575.575 0 0 0-.575-.576zm2.086 0A.575.575 0 0 0 8 9.794v2.005a.575.575 0 1 0 1.15 0V9.794a.575.575 0 0 0-.575-.576zM4.408 35.142v14.074a.575.575 0 1 0 1.15 0V35.142a.575.575 0 1 0-1.15 0zm2.552 0v14.074a.575.575 0 1 0 1.15 0V35.142a.575.575 0 1 0-1.15 0zm2.546 0v14.074a.575.575 0 1 0 1.15 0V35.142a.575.575 0 1 0-1.15 0z" fill="#ffffff" class="color000 svgShape"></path></svg></g></svg>